<svg width="50" height="54" viewBox="0 0 50 54" fill="none" xmlns="http://www.w3.org/2000/svg">
<path d="M8.45576 31.1931C5.42046 29.2217 5.42046 24.7783 8.45576 22.8069L30.2765 8.63389C33.6028 6.47336 38 8.8606 38 12.827V41.173C38 45.1394 33.6028 47.5266 30.2765 45.3661L8.45576 31.1931Z" fill="#E1E1E1"/>
<path d="M8.72811 30.7738C5.99634 28.9995 5.99634 25.0005 8.72811 23.2262L30.5488 9.05321C33.5425 7.10873 37.5 9.25725 37.5 12.827V41.173C37.5 44.7428 33.5425 46.8913 30.5488 44.9468L8.72811 30.7738Z" stroke="black" stroke-opacity="0.35"/>
<rect y="51" width="50" height="5" rx="2.5" transform="rotate(-90 0 51)" fill="#E1E1E1"/>
<rect x="0.5" y="50.5" width="49" height="4" rx="2" transform="rotate(-90 0.5 50.5)" stroke="black" stroke-opacity="0.35"/>
</svg>
