<svg width="37" height="37" viewBox="0 0 37 37" fill="none" xmlns="http://www.w3.org/2000/svg">
<path d="M9.98712 1.64163C8.14434 1.63151 6.67591 4.42891 6.36372 7.44384H2.31251V8.74462H6.30374C6.3088 9.18544 6.33915 9.61903 6.39985 10.0454L7.65294 8.74462H9.49571C9.2211 9.02645 8.92481 9.30106 8.6213 9.59735L6.36372 11.946V11.9388C6.32542 11.9821 6.28423 12.0255 6.2452 12.0688H2.31251V13.3696H5.07089C4.13505 14.4247 3.19849 15.552 2.49317 16.6938H2.45704V16.7516C1.87241 17.7128 1.45327 18.6884 1.34126 19.635C1.08833 22.0559 2.02923 24.4985 3.75421 25.9438H2.31251V27.2446H7.0488C7.2338 27.2518 7.42169 27.2518 7.61681 27.2446H9.06935C9.33673 28.7405 9.5752 30.222 9.71251 31.5806C9.74142 31.8407 9.23556 32.3466 8.98985 32.4044C8.98985 30.8145 7.70352 29.521 6.11079 29.521C4.52817 29.521 3.23462 30.8145 3.23462 32.4044C3.24184 33.8569 4.33306 34.9915 5.76392 35.2589C8.78751 35.8153 11.4252 33.9653 10.9988 31.4288C10.7893 30.0485 10.5508 28.6466 10.2979 27.2446H34.6875V25.9438H10.0666C9.85704 24.8237 9.64747 23.7108 9.45235 22.6196H12.1479C11.96 23.1833 11.5625 23.7686 11.035 24.2817L11.3024 25.7849C12.4225 24.9683 13.5643 23.8626 13.8822 22.6196H34.6875V21.3188H13.94C13.8244 20.271 13.3764 19.0931 12.6537 18.4354C12.4731 18.2692 12.2852 18.1247 12.09 17.9946H34.6875V16.6938H8.44063C8.35392 16.1374 8.30333 15.8411 8.24552 15.5087L7.12251 16.5999C7.12829 16.6288 7.13479 16.6649 7.14058 16.6938H5.24866C6.13825 15.5231 7.16515 14.4608 8.22384 13.3696H34.6875V12.0688H9.45958C10.2184 11.2522 10.9699 10.3923 11.6781 9.43837C11.8227 9.23602 11.9527 9.00477 12.0611 8.74462H34.6875V7.44384H12.4369C12.6176 6.51233 12.632 5.53891 12.5236 4.8972C12.3285 3.73227 11.4975 1.79772 10.2184 1.65753C10.1389 1.64741 10.0666 1.64163 9.98712 1.64163ZM9.58966 4.31546C10.0883 4.32268 10.6303 4.7346 10.717 5.46809C10.8109 6.27602 10.6953 6.90401 10.4424 7.44384H7.84083C8.08653 5.99852 8.6502 4.39206 9.58966 4.31546ZM4.35257 17.9946H6.61015C5.63817 18.8979 5.19446 20.1337 5.24216 21.3188H3.09225C3.09515 20.9142 3.16308 20.5022 3.30688 20.0903C3.59739 19.3388 3.95222 18.645 4.35257 17.9946ZM8.94649 18.8112C9.79923 18.7895 10.8904 19.2304 11.4035 19.7434C11.8154 20.1915 12.0973 20.7624 12.2129 21.3188H9.21388C9.06212 20.4661 8.91036 19.6278 8.78028 18.8184C8.83087 18.8112 8.88868 18.8112 8.94649 18.8112ZM7.54454 19.2809C7.65294 19.9241 7.78302 20.6106 7.92032 21.3188H6.54944C6.55667 20.5239 6.8544 19.7868 7.54454 19.2809ZM3.30616 22.6196H5.50231C5.69671 23.1399 5.99589 23.6241 6.39985 24.0216C6.76841 24.3974 7.49395 23.8265 7.12251 23.4001C6.98304 23.1472 6.86669 22.887 6.77491 22.6196H8.17325C8.39005 23.7036 8.61407 24.8237 8.83087 25.9438H7.38556V25.9366C5.54712 25.6981 3.8814 24.3251 3.30616 22.6196Z" fill="#810000"/>
</svg>
