<svg width="50" height="54" viewBox="0 0 50 54" fill="none" xmlns="http://www.w3.org/2000/svg">
<path d="M41.5442 22.8069C44.5795 24.7783 44.5795 29.2217 41.5442 31.1931L19.7235 45.3661C16.3972 47.5266 12 45.1394 12 41.173V12.827C12 8.8606 16.3972 6.47336 19.7235 8.63389L41.5442 22.8069Z" fill="#E1E1E1"/>
<path d="M41.2719 23.2262C44.0037 25.0005 44.0037 28.9995 41.2719 30.7738L19.4512 44.9468C16.4575 46.8913 12.5 44.7428 12.5 41.173V12.827C12.5 9.25725 16.4575 7.10873 19.4512 9.0532L41.2719 23.2262Z" stroke="black" stroke-opacity="0.35"/>
<rect x="50" y="3" width="50" height="5" rx="2.5" transform="rotate(90 50 3)" fill="#E1E1E1"/>
<rect x="49.5" y="3.5" width="49" height="4" rx="2" transform="rotate(90 49.5 3.5)" stroke="black" stroke-opacity="0.35"/>
</svg>
