<svg width="40" height="40" viewBox="0 0 40 40" fill="none" xmlns="http://www.w3.org/2000/svg">
<path d="M17.8281 2.10069C16.6406 2.08116 15.6641 4.71476 16.8672 5.21007L17.5625 5.4921L18.9531 4.28116L18.8125 2.44523L18.1328 2.16398C18.0469 2.13038 17.9687 2.11085 17.8828 2.10304H17.8281V2.10069ZM28.3281 2.71944H28.1484C27.5703 2.74288 26.9531 2.88507 26.3281 3.16866C24.6719 3.92413 22.9219 5.72101 21.6641 9.08585L13.625 30.8359L13.6172 30.8515V30.8671C13.6875 30.9062 13.8984 31.0155 14.2422 31.1796C15.0078 31.5546 16.1172 32.4062 16.2812 34.2109V34.2499L16.2031 38.5937H23.75C23.7422 37.2187 23.8594 35.8984 24.3828 34.5702C25.2969 32.2734 27.4531 30.2812 31.9609 28.5546C31.9609 28.539 31.9609 28.5546 31.9688 28.5234C31.9922 28.3671 32 28.0546 31.9688 27.664C31.8906 26.8749 31.6562 25.7187 31.2969 24.3671C30.5781 21.6562 29.3594 18.1015 27.9844 14.6093L27.7969 14.1249L28.2031 13.7968C31.0234 11.5937 32.1953 9.39054 32.4062 7.58116C32.6172 5.7796 31.8984 4.34054 30.7422 3.49913C30.0625 3.00616 29.2344 2.71866 28.3281 2.71632V2.71944ZM20.3516 4.09679L20.4062 4.87882L19.8125 5.39444L21.5078 6.0921C21.6016 5.92257 21.7031 5.75773 21.8047 5.59757L22.1172 4.82491L20.3516 4.09679ZM25.7422 5.54679C26.4297 5.54679 26.9922 6.10616 26.9922 6.79679C26.9922 7.48741 26.4297 8.04679 25.7422 8.04679C25.0547 8.04679 24.4922 7.48741 24.4922 6.79679C24.4922 6.10616 25.0547 5.54679 25.7422 5.54679ZM15.0625 9.4296C13.875 9.40616 12.8828 12.039 14.1016 12.539L14.7891 12.8202L16.1797 11.6093L16.0469 9.76554L15.3594 9.48429C15.2734 9.45304 15.1953 9.43741 15.1172 9.4296H15.0625ZM17.5781 11.4218L17.6328 12.203L17.0391 12.7187L18.5938 13.3515L19.0781 12.039L17.5781 11.4218ZM23.1719 12.9687C23.8594 12.9687 24.4219 13.5312 24.4219 14.2187C24.4219 14.9062 23.8594 15.4687 23.1719 15.4687C22.4844 15.4687 21.9219 14.9062 21.9219 14.2187C21.9219 13.5312 22.4844 12.9687 23.1719 12.9687ZM12.25 16.9218C11.0547 16.8984 10.0781 19.5312 11.2812 20.0312L11.9766 20.3124L13.3672 19.1015L13.2266 17.2577L12.5469 16.9765C12.4609 16.9452 12.3828 16.9296 12.3047 16.9218H12.25ZM14.7656 18.914L14.8203 19.6952L14.2266 20.2109L15.8203 20.8593L16.3047 19.5468L14.7656 18.914ZM20.0156 20.4218C20.7031 20.4218 21.2656 20.9843 21.2656 21.6718C21.2656 22.3593 20.7031 22.9218 20.0156 22.9218C19.3281 22.9218 18.7656 22.3593 18.7656 21.6718C18.7656 20.9843 19.3281 20.4218 20.0156 20.4218ZM9.07031 24.6718C7.88281 24.6484 6.9 27.2812 8.10937 27.7812L8.79687 28.0624L10.1875 26.8515L10.0469 25.0077L9.36719 24.7265C9.28125 24.6952 9.20312 24.6796 9.125 24.6718H9.07031ZM11.5859 26.664L11.6406 27.4452L11.0469 27.9609L12.8281 28.6874L13.3594 27.3905L11.5859 26.664ZM17 28.1093C17.6875 28.1093 18.25 28.6718 18.25 29.3593C18.25 30.0468 17.6875 30.6093 17 30.6093C16.3125 30.6093 15.75 30.0468 15.75 29.3593C15.75 28.6718 16.3125 28.1093 17 28.1093Z" fill="#810000"/>
</svg>
