<svg width="42" height="36" viewBox="0 0 42 36" fill="none" xmlns="http://www.w3.org/2000/svg">
<path d="M30.8571 0V5.14286H5.14286C2.31429 5.14286 0 7.45714 0 10.2857V15.4286H5.14286V10.2857H30.8571V15.4286L41.1429 7.71429L30.8571 0ZM10.2857 20.5714L0 28.2857L10.2857 36V30.8571H36C38.8286 30.8571 41.1429 28.5429 41.1429 25.7143V20.5714H36V25.7143H10.2857V20.5714Z" fill="#E1E1E1"/>
<path d="M30.8571 5.64286H31.3571V5.14286V0.999999L40.3095 7.71429L31.3571 14.4286V10.2857V9.78571H30.8571H5.14286H4.64286V10.2857V14.9286H0.5V10.2857C0.5 7.73329 2.59043 5.64286 5.14286 5.64286H30.8571ZM10.2857 30.3571H9.78571V30.8571V35L0.833333 28.2857L9.78571 21.5714V25.7143V26.2143H10.2857H36H36.5V25.7143V21.0714H40.6429V25.7143C40.6429 28.2667 38.5524 30.3571 36 30.3571H10.2857Z" stroke="black" stroke-opacity="0.35"/>
</svg>
