<svg width="37" height="40" viewBox="0 0 37 40" fill="none" xmlns="http://www.w3.org/2000/svg">
<path d="M27.0476 17.9438L30.9181 13.3406C31.12 13.0946 31.2241 12.7724 31.2077 12.444C31.1914 12.1155 31.056 11.8073 30.8308 11.586C30.6056 11.3648 30.3089 11.2485 30.0049 11.2622C29.7009 11.2759 29.4142 11.4186 29.2069 11.6594L26.2367 15.1906L23.7508 6.7422C23.6032 6.23572 23.3097 5.7935 22.9132 5.48008C22.5167 5.16666 22.0379 4.99845 21.5467 5.00001H15.4518C14.9606 4.99845 14.4818 5.16666 14.0853 5.48008C13.6888 5.7935 13.3953 6.23572 13.2477 6.7422L5.88962 31.7422C5.77936 32.1169 5.75243 32.5145 5.81101 32.9027C5.8696 33.2908 6.01206 33.6585 6.22681 33.9759C6.44155 34.2933 6.72254 34.5515 7.04693 34.7294C7.37132 34.9074 7.72996 35.0001 8.09373 35H28.9062C29.27 35.0001 29.6286 34.9074 29.953 34.7294C30.2774 34.5515 30.5584 34.2933 30.7731 33.9759C30.9879 33.6585 31.1304 33.2908 31.1889 32.9027C31.2475 32.5145 31.2206 32.1169 31.1103 31.7422L27.0476 17.9438ZM10.3007 25L15.4518 7.50001H21.5467L24.4373 17.3281L17.9883 25H10.3007ZM21.1131 25L25.2496 20.0813L26.6949 25H21.1131Z" fill="#810000"/>
</svg>
