<svg width="34" height="37" viewBox="0 0 34 37" fill="none" xmlns="http://www.w3.org/2000/svg">
<g clip-path="url(#clip0_697_108)">
<path d="M17 27.75C17.5636 27.75 18.1041 27.5064 18.5026 27.0727C18.9011 26.639 19.125 26.0508 19.125 25.4375C19.125 24.8242 18.9011 24.236 18.5026 23.8023C18.1041 23.3686 17.5636 23.125 17 23.125C16.4364 23.125 15.8959 23.3686 15.4974 23.8023C15.0989 24.236 14.875 24.8242 14.875 25.4375C14.875 26.0508 15.0989 26.639 15.4974 27.0727C15.8959 27.5064 16.4364 27.75 17 27.75Z" fill="#810000"/>
<path d="M8.5 0C7.37283 0 6.29183 0.487275 5.4948 1.35463C4.69777 2.22199 4.25 3.39837 4.25 4.625V32.375C4.25 33.6016 4.69777 34.778 5.4948 35.6454C6.29183 36.5127 7.37283 37 8.5 37H25.5C26.6272 37 27.7082 36.5127 28.5052 35.6454C29.3022 34.778 29.75 33.6016 29.75 32.375V4.625C29.75 3.39837 29.3022 2.22199 28.5052 1.35463C27.7082 0.487275 26.6272 0 25.5 0L8.5 0ZM10.625 4.625H23.375C23.9386 4.625 24.4791 4.86864 24.8776 5.30232C25.2761 5.73599 25.5 6.32419 25.5 6.9375V12.7188C25.5 13.3321 25.2761 13.9203 24.8776 14.3539C24.4791 14.7876 23.9386 15.0312 23.375 15.0312H10.625C10.0614 15.0312 9.52091 14.7876 9.1224 14.3539C8.72388 13.9203 8.5 13.3321 8.5 12.7188V6.9375C8.5 6.32419 8.72388 5.73599 9.1224 5.30232C9.52091 4.86864 10.0614 4.625 10.625 4.625ZM17 32.375C16.1628 32.375 15.3338 32.1956 14.5604 31.8469C13.7869 31.4983 13.0842 30.9873 12.4922 30.3431C11.9002 29.6988 11.4306 28.9341 11.1103 28.0924C10.7899 27.2507 10.625 26.3485 10.625 25.4375C10.625 24.5265 10.7899 23.6243 11.1103 22.7826C11.4306 21.9409 11.9002 21.1762 12.4922 20.5319C13.0842 19.8877 13.7869 19.3767 14.5604 19.0281C15.3338 18.6794 16.1628 18.5 17 18.5C18.6908 18.5 20.3123 19.2309 21.5078 20.5319C22.7034 21.833 23.375 23.5976 23.375 25.4375C23.375 27.2774 22.7034 29.042 21.5078 30.3431C20.3123 31.6441 18.6908 32.375 17 32.375Z" fill="#810000"/>
</g>
<defs>
<clipPath id="clip0_697_108">
<rect width="34" height="37" fill="white"/>
</clipPath>
</defs>
</svg>
