<svg width="75" height="75" viewBox="0 0 75 75" fill="none" xmlns="http://www.w3.org/2000/svg">
<path fill-rule="evenodd" clip-rule="evenodd" d="M75 37.5C75 58.2107 58.2107 75 37.5 75C16.7893 75 0 58.2107 0 37.5C0 16.7893 16.7893 0 37.5 0C58.2107 0 75 16.7893 75 37.5ZM25 24C25 21.7909 26.7909 20 29 20C31.2091 20 33 21.7909 33 24V51C33 53.2091 31.2091 55 29 55C26.7909 55 25 53.2091 25 51V24ZM47 20C44.7909 20 43 21.7909 43 24V51C43 53.2091 44.7909 55 47 55C49.2091 55 51 53.2091 51 51V24C51 21.7909 49.2091 20 47 20Z" fill="#AC0000"/>
</svg>
