<svg width="75" height="75" viewBox="0 0 75 75" fill="none" xmlns="http://www.w3.org/2000/svg">
<mask id="path-1-inside-1_527_1906" fill="white">
<path fill-rule="evenodd" clip-rule="evenodd" d="M37.5 75C58.2107 75 75 58.2107 75 37.5C75 16.7893 58.2107 0 37.5 0C16.7893 0 0 16.7893 0 37.5C0 58.2107 16.7893 75 37.5 75ZM27.375 52.988L55.5 36.75L27.375 20.512V52.988Z"/>
</mask>
<path fill-rule="evenodd" clip-rule="evenodd" d="M37.5 75C58.2107 75 75 58.2107 75 37.5C75 16.7893 58.2107 0 37.5 0C16.7893 0 0 16.7893 0 37.5C0 58.2107 16.7893 75 37.5 75ZM27.375 52.988L55.5 36.75L27.375 20.512V52.988Z" fill="#AC0000"/>
<path d="M55.5 36.75L56 37.616L57.5 36.75L56 35.884L55.5 36.75ZM27.375 52.988H26.375V54.72L27.875 53.854L27.375 52.988ZM27.375 20.512L27.875 19.646L26.375 18.78V20.512H27.375ZM74 37.5C74 57.6584 57.6584 74 37.5 74V76C58.763 76 76 58.763 76 37.5H74ZM37.5 1C57.6584 1 74 17.3416 74 37.5H76C76 16.237 58.763 -1 37.5 -1V1ZM1 37.5C1 17.3416 17.3416 1 37.5 1V-1C16.237 -1 -1 16.237 -1 37.5H1ZM37.5 74C17.3416 74 1 57.6584 1 37.5H-1C-1 58.763 16.237 76 37.5 76V74ZM55 35.884L26.875 52.122L27.875 53.854L56 37.616L55 35.884ZM26.875 21.378L55 37.616L56 35.884L27.875 19.646L26.875 21.378ZM28.375 52.988V20.512H26.375V52.988H28.375Z" fill="black" fill-opacity="0.35" mask="url(#path-1-inside-1_527_1906)"/>
</svg>
