<svg width="50" height="36" viewBox="0 0 50 36" fill="none" xmlns="http://www.w3.org/2000/svg">
<path d="M37.5 0V4.5H34.375C32.1875 4.5 30.875 4.95 29.5 6.21L20.6875 14.22L11.125 6.21C9.75 5.04 8.375 4.5 6.25 4.5H0V9H6.25C5.9375 9 6.3125 9.18 6.4375 9.135L16.625 17.73L6.25 27H0V31.5H6.25C8.4375 31.5 9.75 31.05 11.125 29.79L20.6875 21.195L31.0625 29.79C32.4375 30.96 33.8125 31.5 35.9375 31.5H37.5V36L50 29.25L37.5 22.5V27H36.125C36.0625 26.955 35.8125 26.82 35.75 26.865L24.8125 17.595L34.375 9H37.5V13.5L50 6.75L37.5 0Z" fill="#E1E1E1"/>
<path d="M48.9477 6.75L38 12.6618V9V8.5H37.5H34.375H34.1833L34.0408 8.62814L24.4783 17.2231L24.0522 17.6061L24.4892 17.9764L35.4267 27.2464L35.7249 27.4992L35.8438 27.4136L35.9637 27.5H36.125H37.5H38V27V23.3382L48.9477 29.25L38 35.1618V31.5V31H37.5H35.9375C33.9263 31 32.6674 30.4991 31.3865 29.4092L31.3866 29.4092L31.3815 29.405L21.0065 20.81L20.6742 20.5347L20.3533 20.8231L10.7908 29.4181L10.7907 29.4181L10.7872 29.4214C10.1391 30.0153 9.52433 30.4021 8.82739 30.6454C8.12539 30.8905 7.31126 31 6.25 31H0.5V27.5H6.25H6.44083L6.58314 27.3729L16.9581 18.1028L17.3876 17.7192L16.9474 17.3478L6.75992 8.75284L6.53949 8.56687L6.26814 8.66456C6.33324 8.64112 6.38257 8.64197 6.39497 8.64232C6.40434 8.64259 6.41081 8.64333 6.41404 8.64377L6.41649 8.64417C6.41828 8.64504 6.42078 8.64633 6.42399 8.64812L6.42428 8.64828C6.42861 8.65067 6.46625 8.67144 6.50821 8.71737C6.52106 8.73143 6.58734 8.80694 6.61646 8.92288C6.63704 9.00487 6.63905 9.10708 6.59043 9.2221C6.58601 9.23254 6.58135 9.24259 6.57647 9.25224L6.4375 9.135C6.39272 9.15112 6.31585 9.13836 6.25 9.11535V9V8.5H0.5V5H6.25C8.26125 5 9.52013 5.50092 10.801 6.5908L10.801 6.59081L10.8039 6.5933L20.3664 14.6033L20.7009 14.8835L21.0238 14.59L29.8363 6.58L29.8378 6.57863C30.4859 5.9847 31.1007 5.59786 31.7976 5.35456C32.4996 5.1095 33.3137 5 34.375 5H37.5H38V4.5V0.838243L48.9477 6.75Z" stroke="black" stroke-opacity="0.35"/>
</svg>
